# File created by Blade
# Date/Time:  Thu Jan 22 18:06:27 2015
# Frame Rate: 120.000 fps
#------------------------------------------------------
:FULLY-SPECIFIED
:DEGREES
3838
root -6.355664 32.523568 -1.994024 5.967967 -8.291196 -3.958015
RightUpLeg -0.408248 10.183657 10.483811
RightLeg 1.222244 -0.000000 -0.000000
RightFoot -9.288988 -6.245076 -6.599871
RightToeBase 3.455751 -0.000000 -0.000000
LeftUpLeg -12.897801 1.274690 5.740907
LeftLeg 32.320740 -0.000000 -0.000000
LeftFoot -28.448674 9.153405 -16.608586
LeftToeBase 9.561340 -0.000000 -0.000000
Spine -7.460024 -0.568941 1.574128
RightShoulder -19.474986 -21.940725 -6.793582
RightArm 19.994768 -8.416254 82.219985
RightForeArm -6.709525 -0.000000 21.138235
RightHand 9.326998 0.000000 2.488144
RightHandThumb1 -24.326973 -0.000000 -32.862282
LeftShoulder -22.161877 6.262255 29.281748
LeftArm 4.397289 -43.129953 -47.693836
LeftForeArm 3.571076 0.000000 48.166715
LeftHand -2.038418 -0.000000 35.341009
LeftHandThumb1 -26.253704 0.000000 33.147579
Head 7.230521 4.591921 5.219861
3839
root -6.379854 32.513339 -2.014025 5.977354 -8.321242 -4.082311
RightUpLeg -0.402578 10.302394 10.640871
RightLeg 1.173327 -0.000000 -0.000000
RightFoot -9.218359 -6.275739 -6.636846
RightToeBase 3.496108 -0.000000 -0.000000
LeftUpLeg -13.043168 1.357369 5.908470
LeftLeg 32.602454 -0.000000 -0.000000
LeftFoot -28.543811 9.103512 -16.586013
LeftToeBase 9.597617 -0.000000 -0.000000
Spine -7.473367 -0.586908 1.675577
RightShoulder -19.515493 -21.955569 -6.700841
RightArm 20.010461 -8.504658 82.212798
RightForeArm -6.699356 -0.000000 21.132917
RightHand 9.334235 0.000000 2.433798
RightHandThumb1 -24.326973 -0.000000 -32.862282
LeftShoulder -22.145366 6.191587 29.346197
LeftArm 4.352546 -43.158169 -47.648734
LeftForeArm 3.589966 -0.000000 48.095661
LeftHand -2.009708 0.000000 35.446625
LeftHandThumb1 -26.253704 0.000000 33.147579
Head 7.262625 4.585760 5.336819
3840
root -6.405773 32.503460 -2.030808 5.943745 -8.329229 -4.177194
RightUpLeg -0.343788 10.375183 10.784077
RightLeg 1.105252 -0.000000 -0.000000
RightFoot -9.149245 -6.314093 -6.673173
RightToeBase 3.472369 -0.000000 -0.000000
LeftUpLeg -13.121894 1.462447 6.053312
LeftLeg 32.829259 -0.000000 -0.000000
LeftFoot -28.619822 9.006236 -16.574630
LeftToeBase 9.574169 -0.000000 -0.000000
Spine -7.442280 -0.613267 1.723275
RightShoulder -19.560514 -21.959581 -6.586554
RightArm 20.004001 -8.580309 82.236552
RightForeArm -6.524410 -0.000000 21.097156
RightHand 9.374232 -0.000000 2.240729
RightHandThumb1 -24.326973 -0.000000 -32.862282
LeftShoulder -22.116603 6.178035 29.402352
LeftArm 4.402091 -43.272286 -47.671554
LeftForeArm 3.615794 -0.000000 48.022018
LeftHand -1.997879 -0.000000 35.563215
LeftHandThumb1 -26.253704 0.000000 33.147579
Head 7.275755 4.542852 5.469331
3841
root -6.428547 32.494918 -2.050120 5.936311 -8.391106 -4.272086
RightUpLeg -0.340098 10.545833 10.908621
RightLeg 1.094074 -0.000000 -0.000000
RightFoot -9.101215 -6.369219 -6.684474
RightToeBase 3.510989 -0.000000 -0.000000
LeftUpLeg -13.194133 1.663657 6.179647
LeftLeg 33.016321 -0.000000 -0.000000
LeftFoot -28.704742 8.898981 -16.591101
LeftToeBase 9.619242 -0.000000 -0.000000
Spine -7.424634 -0.613404 1.774386
RightShoulder -19.604078 -21.960020 -6.473391
RightArm 20.041543 -8.669570 82.222546
RightForeArm -6.488963 -0.000000 21.062100
RightHand 9.225893 -0.000000 2.284156
RightHandThumb1 -24.326973 -0.000000 -32.862282
LeftShoulder -22.144216 6.115695 29.469971
LeftArm 4.422478 -43.325363 -47.676478
LeftForeArm 3.629038 -0.000000 47.952207
LeftHand -2.010110 0.000000 35.639290
LeftHandThumb1 -26.253704 0.000000 33.147579
Head 7.270360 4.534160 5.612598
3842
root -6.449711 32.488174 -2.070243 5.935059 -8.442640 -4.354262
RightUpLeg -0.338880 10.630994 11.020969
RightLeg 1.062474 -0.000000 -0.000000
RightFoot -9.036456 -6.373653 -6.717649
RightToeBase 3.480916 -0.000000 -0.000000
LeftUpLeg -13.263752 1.767676 6.312004
LeftLeg 33.158682 -0.000000 -0.000000
LeftFoot -28.748779 8.826027 -16.523352
LeftToeBase 9.642885 -0.000000 -0.000000
Spine -7.430183 -0.613492 1.831547
RightShoulder -19.644207 -21.975781 -6.360974
RightArm 20.061892 -8.717481 82.219566
RightForeArm -6.569955 -0.000000 21.024380
RightHand 9.285128 -0.000000 2.310787
RightHandThumb1 -24.326973 -0.000000 -32.862282
LeftShoulder -22.151475 6.116425 29.476550
LeftArm 4.540297 -43.454034 -47.736452
LeftForeArm 3.678491 0.000000 47.864808
LeftHand -1.979494 -0.000000 35.734463
LeftHandThumb1 -26.253704 0.000000 33.147579
Head 7.313139 4.554549 5.699231
